<svg width="24" height="24" viewBox="0 0 24 24" fill="none" xmlns="http://www.w3.org/2000/svg">
<path d="M16.2397 3C16.2397 2.72386 16.0159 2.5 15.7397 2.5C15.4636 2.5 15.2397 2.72386 15.2397 3H16.2397ZM19.7397 7.5C20.0159 7.5 20.2397 7.27614 20.2397 7C20.2397 6.72386 20.0159 6.5 19.7397 6.5V7.5ZM6.73975 10.5C6.4636 10.5 6.23975 10.7239 6.23975 11C6.23975 11.2761 6.4636 11.5 6.73975 11.5V10.5ZM12.7397 11.5C13.0159 11.5 13.2397 11.2761 13.2397 11C13.2397 10.7239 13.0159 10.5 12.7397 10.5V11.5ZM6.73975 14.5C6.4636 14.5 6.23975 14.7239 6.23975 15C6.23975 15.2761 6.4636 15.5 6.73975 15.5V14.5ZM10.7397 15.5C11.0159 15.5 11.2397 15.2761 11.2397 15C11.2397 14.7239 11.0159 14.5 10.7397 14.5V15.5ZM6.73975 6.5C6.4636 6.5 6.23975 6.72386 6.23975 7C6.23975 7.27614 6.4636 7.5 6.73975 7.5V6.5ZM10.7397 7.5C11.0159 7.5 11.2397 7.27614 11.2397 7C11.2397 6.72386 11.0159 6.5 10.7397 6.5V7.5ZM14.5822 17.2722L14.2262 16.921L14.5822 17.2722ZM17.8146 13.9952L17.4586 13.6441L17.8146 13.9952ZM19.7288 15.8647L19.379 15.5074L19.7288 15.8647ZM16.4418 19.0836L16.7916 19.4408L16.4418 19.0836ZM15.4866 19.6071L15.6003 20.094L15.4866 19.6071ZM13.9844 19.9578L13.8708 19.4709L13.9844 19.9578ZM13.7411 19.7238L14.2301 19.8278L13.7411 19.7238ZM14.0544 18.25L13.5654 18.146L14.0544 18.25ZM13.7368 19.9683L13.3902 20.3288L13.7368 19.9683ZM19.7609 14.0106L19.3992 14.3559L19.3992 14.3559L19.7609 14.0106ZM20.1413 14.4583L19.7025 14.6979L19.7025 14.698L20.1413 14.4583ZM20.1245 15.4298L19.6941 15.1753L20.1245 15.4298ZM18.2785 13.5775L18.0299 13.1437L18.2785 13.5775ZM19.3041 13.5857L19.0485 14.0154H19.0485L19.3041 13.5857ZM14.2111 17.7048L14.6511 17.9423L14.2111 17.7048ZM16.0199 19.4443L16.2602 19.8828L16.0199 19.4443ZM17.8862 16.8536C18.0815 17.0488 18.398 17.0488 18.5933 16.8536C18.7886 16.6583 18.7886 16.3417 18.5933 16.1464L17.8862 16.8536ZM10.7397 21.5C11.0159 21.5 11.2397 21.2761 11.2397 21C11.2397 20.7239 11.0159 20.5 10.7397 20.5V21.5ZM19.2397 11C19.2397 11.2761 19.4636 11.5 19.7397 11.5C20.0159 11.5 20.2397 11.2761 20.2397 11H19.2397ZM18.5682 4.82843L18.9217 4.47487V4.47487L18.5682 4.82843ZM19.5875 6.06306L19.1256 6.2544V6.2544L19.5875 6.06306ZM16.6767 3.15224L16.868 2.6903L16.868 2.6903L16.6767 3.15224ZM15.2397 3V5.63636H16.2397V3H15.2397ZM17.1034 7.5H19.7397V6.5H17.1034V7.5ZM15.2397 5.63636C15.2397 6.66562 16.0741 7.5 17.1034 7.5V6.5C16.6264 6.5 16.2397 6.11334 16.2397 5.63636H15.2397ZM6.73975 11.5H12.7397V10.5H6.73975V11.5ZM6.73975 15.5H10.7397V14.5H6.73975V15.5ZM6.73975 7.5H10.7397V6.5H6.73975V7.5ZM14.9382 17.6233L18.1705 14.3463L17.4586 13.6441L14.2262 16.921L14.9382 17.6233ZM19.379 15.5074L16.092 18.7264L16.7916 19.4408L20.0787 16.2219L19.379 15.5074ZM15.3729 19.1202L13.8708 19.4709L14.0981 20.4447L15.6003 20.094L15.3729 19.1202ZM14.2301 19.8278L14.5435 18.354L13.5654 18.146L13.252 19.6198L14.2301 19.8278ZM13.8708 19.4709C13.8341 19.4795 13.8108 19.4849 13.792 19.4887C13.7725 19.4928 13.7721 19.4921 13.7815 19.4913C13.7898 19.4906 13.8306 19.4874 13.8866 19.5005C13.9509 19.5155 14.0221 19.5491 14.0833 19.6079L13.3902 20.3288C13.565 20.4968 13.7732 20.4955 13.8654 20.4877C13.9502 20.4806 14.0448 20.4572 14.0981 20.4447L13.8708 19.4709ZM13.252 19.6198C13.2409 19.6721 13.2192 19.7677 13.214 19.8533C13.2083 19.9482 13.2134 20.1588 13.3902 20.3288L14.0833 19.6079C14.1447 19.6669 14.1818 19.7377 14.1996 19.804C14.215 19.8614 14.2127 19.9041 14.2122 19.9135C14.2115 19.924 14.2107 19.9245 14.2142 19.9054C14.2176 19.8871 14.2224 19.8642 14.2301 19.8278L13.252 19.6198ZM19.3992 14.3559C19.6332 14.601 19.6793 14.6556 19.7025 14.6979L20.5801 14.2186C20.4779 14.0315 20.3122 13.8641 20.1226 13.6654L19.3992 14.3559ZM20.0787 16.2219C20.2751 16.0295 20.4463 15.8679 20.5549 15.6843L19.6941 15.1753C19.6694 15.217 19.6213 15.2702 19.379 15.5074L20.0787 16.2219ZM19.7025 14.698C19.7842 14.8477 19.7812 15.028 19.6941 15.1753L20.5549 15.6843C20.8213 15.2338 20.831 14.678 20.5801 14.2186L19.7025 14.698ZM18.1705 14.3463C18.4239 14.0895 18.4819 14.0372 18.5271 14.0113L18.0299 13.1437C17.836 13.2548 17.6645 13.4354 17.4586 13.6441L18.1705 14.3463ZM20.1226 13.6654C19.9203 13.4535 19.7518 13.2702 19.5596 13.1559L19.0485 14.0154C19.0931 14.0419 19.1502 14.095 19.3992 14.3559L20.1226 13.6654ZM18.5271 14.0113C18.6885 13.9188 18.889 13.9205 19.0485 14.0154L19.5596 13.1559C19.0899 12.8765 18.5041 12.872 18.0299 13.1437L18.5271 14.0113ZM14.2262 16.921C14.0435 17.1063 13.8802 17.2654 13.7711 17.4673L14.6511 17.9423C14.6767 17.8949 14.7159 17.8487 14.9382 17.6233L14.2262 16.921ZM14.5435 18.354C14.6089 18.0462 14.6258 17.9893 14.6511 17.9423L13.7711 17.4673C13.6619 17.6698 13.6191 17.8932 13.5654 18.146L14.5435 18.354ZM16.092 18.7264C15.8727 18.9411 15.8271 18.9798 15.7796 19.0058L16.2602 19.8828C16.456 19.7754 16.6106 19.6181 16.7916 19.4408L16.092 18.7264ZM15.6003 20.094C15.8485 20.036 16.0647 19.9899 16.2602 19.8828L15.7796 19.0058C15.7317 19.0321 15.6735 19.05 15.3729 19.1202L15.6003 20.094ZM18.5933 16.1464L17.5933 15.1464L16.8862 15.8536L17.8862 16.8536L18.5933 16.1464ZM15.0829 2.5H9.73975V3.5H15.0829V2.5ZM3.23975 9V15H4.23975V9H3.23975ZM9.73975 21.5H10.7397V20.5H9.73975V21.5ZM20.2397 11V7.65685H19.2397V11H20.2397ZM18.9217 4.47487L18.2649 3.81802L17.5578 4.52513L18.2146 5.18198L18.9217 4.47487ZM20.2397 7.65685C20.2397 6.88015 20.2486 6.35251 20.0494 5.87172L19.1256 6.2544C19.2309 6.50869 19.2397 6.79856 19.2397 7.65685H20.2397ZM18.2146 5.18198C18.8215 5.78887 19.0202 6.00012 19.1256 6.2544L20.0494 5.87172C19.8503 5.39093 19.4709 5.02406 18.9217 4.47487L18.2146 5.18198ZM3.23975 15C3.23975 16.4001 3.23868 17.5004 3.35404 18.3584C3.47133 19.2308 3.71715 19.9272 4.26487 20.4749L4.97198 19.7678C4.64102 19.4368 4.4475 18.9867 4.34512 18.2252C4.24081 17.4493 4.23975 16.4283 4.23975 15H3.23975ZM9.73975 20.5C8.3114 20.5 7.29044 20.4989 6.51455 20.3946C5.75306 20.2922 5.30293 20.0987 4.97198 19.7678L4.26487 20.4749C4.8126 21.0226 5.50892 21.2684 6.38131 21.3857C7.23931 21.5011 8.33967 21.5 9.73975 21.5V20.5ZM9.73975 2.5C8.33967 2.5 7.23931 2.49894 6.38131 2.61429C5.50892 2.73158 4.8126 2.9774 4.26487 3.52513L4.97198 4.23223C5.30293 3.90128 5.75306 3.70776 6.51455 3.60538C7.29044 3.50106 8.3114 3.5 9.73975 3.5V2.5ZM4.23975 9C4.23975 7.57165 4.24081 6.55069 4.34512 5.77481C4.4475 5.01331 4.64102 4.56319 4.97198 4.23223L4.26487 3.52513C3.71715 4.07285 3.47133 4.76917 3.35404 5.64156C3.23868 6.49956 3.23975 7.59992 3.23975 9H4.23975ZM15.0829 3.5C15.9412 3.5 16.2311 3.50885 16.4853 3.61418L16.868 2.6903C16.3872 2.49115 15.8596 2.5 15.0829 2.5V3.5ZM18.2649 3.81802C17.7157 3.26881 17.3488 2.88945 16.868 2.6903L16.4853 3.61418C16.7396 3.71951 16.9509 3.91822 17.5578 4.52513L18.2649 3.81802Z" fill="#1C6FF4"/>
</svg>
