<svg width="36" height="36" viewBox="0 0 36 36" fill="none" xmlns="http://www.w3.org/2000/svg">
<circle cx="18" cy="18" r="18" fill="#FFEBEB"/>
<path d="M26 13.4167C23.225 13.1417 20.4333 13 17.65 13C16 13 14.35 13.0833 12.7 13.25L11 13.4167" stroke="#F72F2F" stroke-width="1.5" stroke-linecap="round" stroke-linejoin="round"/>
<path d="M15.0834 12.1417L15.2667 11.05C15.4 10.2583 15.5 9.66667 16.9084 9.66667H19.0917C20.5 9.66667 20.6084 10.2917 20.7334 11.0583L20.9167 12.1417" stroke="#F72F2F" stroke-width="1.5" stroke-linecap="round" stroke-linejoin="round"/>
<path d="M23.7083 15.6167L23.1666 24.0083C23.075 25.3167 23 26.3333 20.675 26.3333H15.325C13 26.3333 12.925 25.3167 12.8333 24.0083L12.2916 15.6167" stroke="#F72F2F" stroke-width="1.5" stroke-linecap="round" stroke-linejoin="round"/>
<path d="M16.6083 21.75H19.3833" stroke="#F72F2F" stroke-width="1.5" stroke-linecap="round" stroke-linejoin="round"/>
<path d="M15.9166 18.4167H20.0833" stroke="#F72F2F" stroke-width="1.5" stroke-linecap="round" stroke-linejoin="round"/>
</svg>
