<svg width="20" height="20" viewBox="0 0 20 20" fill="none" xmlns="http://www.w3.org/2000/svg">
<path d="M4.32003 17.1367L4.54703 16.6912L4.32003 17.1367ZM2.86331 15.68L2.41781 15.907H2.41781L2.86331 15.68ZM15.68 2.86331L15.907 2.41781V2.41781L15.68 2.86331ZM17.1367 4.32003L16.6912 4.54703L17.1367 4.32003ZM4.32003 2.86331L4.54703 3.30881V3.30881L4.32003 2.86331ZM2.86331 4.32003L3.30881 4.54703H3.30881L2.86331 4.32003ZM17 9.16667C17 9.44281 17.2239 9.66667 17.5 9.66667C17.7761 9.66667 18 9.44281 18 9.16667H17ZM9.16667 18C9.44281 18 9.66667 17.7761 9.66667 17.5C9.66667 17.2239 9.44281 17 9.16667 17V18ZM6.66667 6.16667C6.39052 6.16667 6.16667 6.39052 6.16667 6.66667C6.16667 6.94281 6.39052 7.16667 6.66667 7.16667V6.16667ZM13.3333 7.16667C13.6095 7.16667 13.8333 6.94281 13.8333 6.66667C13.8333 6.39052 13.6095 6.16667 13.3333 6.16667V7.16667ZM6.66667 9.5C6.39052 9.5 6.16667 9.72386 6.16667 10C6.16667 10.2761 6.39052 10.5 6.66667 10.5V9.5ZM13.3333 10.5C13.6095 10.5 13.8333 10.2761 13.8333 10C13.8333 9.72386 13.6095 9.5 13.3333 9.5V10.5ZM6.66667 12.8333C6.39052 12.8333 6.16667 13.0572 6.16667 13.3333C6.16667 13.6095 6.39052 13.8333 6.66667 13.8333V12.8333ZM10 13.8333C10.2761 13.8333 10.5 13.6095 10.5 13.3333C10.5 13.0572 10.2761 12.8333 10 12.8333V13.8333ZM11.8777 17.9138L12.352 18.0719L11.8777 17.9138ZM12.2633 16.7568L11.789 16.5987L11.789 16.5987L12.2633 16.7568ZM12.6613 16.113L13.0148 16.4665H13.0148L12.6613 16.113ZM16.5045 12.2698L16.1509 11.9162V11.9162L16.5045 12.2698ZM18.5636 14.3288L18.9171 14.6824L18.5636 14.3288ZM14.7204 18.172L14.3668 17.8185L14.7204 18.172ZM14.0765 18.57L14.2346 19.0443H14.2346L14.0765 18.57ZM12.9195 18.9556L13.0776 19.43H13.0776L12.9195 18.9556ZM14.5093 18.3691L14.8104 18.7682H14.8104L14.5093 18.3691ZM14.3471 18.4693L14.1248 18.0215H14.1248L14.3471 18.4693ZM18.5636 12.2698L18.21 12.6233L18.5636 12.2698ZM19.0596 12.8422L19.5076 12.6202V12.6202L19.0596 12.8422ZM19.0596 13.7564L19.5076 13.9784L19.0596 13.7564ZM17.0769 11.7737L17.2989 12.2217H17.2989L17.0769 11.7737ZM17.9912 11.7737L17.7692 12.2217L17.9912 11.7737ZM12.364 16.4862L12.8119 16.7086V16.7086L12.364 16.4862ZM12.4643 16.324L12.0651 16.0229L12.4643 16.324ZM11.6858 18.8355L12.1568 18.6676L11.6858 18.8355ZM11.9978 19.1475L11.8299 19.6185L11.9978 19.1475ZM7.83333 3H12.1667V2H7.83333V3ZM3 12.1667V7.83333H2V12.1667H3ZM7.83333 17C6.89166 17 6.21548 16.9996 5.68472 16.9562C5.1598 16.9134 4.82131 16.8309 4.54703 16.6912L4.09304 17.5822C4.53179 17.8057 5.01653 17.905 5.60329 17.9529C6.18421 18.0004 6.90816 18 7.83333 18V17ZM2 12.1667C2 13.0918 1.99961 13.8158 2.04707 14.3967C2.09501 14.9835 2.19425 15.4682 2.41781 15.907L3.30881 15.453C3.16906 15.1787 3.08664 14.8402 3.04375 14.3153C3.00039 13.7845 3 13.1083 3 12.1667H2ZM4.54703 16.6912C4.0139 16.4195 3.58046 15.9861 3.30881 15.453L2.41781 15.907C2.78532 16.6283 3.37175 17.2147 4.09304 17.5822L4.54703 16.6912ZM12.1667 3C13.1083 3 13.7845 3.00039 14.3153 3.04375C14.8402 3.08664 15.1787 3.16906 15.453 3.30881L15.907 2.41781C15.4682 2.19425 14.9835 2.09501 14.3967 2.04707C13.8158 1.99961 13.0918 2 12.1667 2V3ZM18 7.83333C18 6.90816 18.0004 6.18421 17.9529 5.60329C17.905 5.01653 17.8057 4.53179 17.5822 4.09304L16.6912 4.54703C16.8309 4.82131 16.9134 5.1598 16.9562 5.68472C16.9996 6.21548 17 6.89166 17 7.83333H18ZM15.453 3.30881C15.9861 3.58046 16.4195 4.0139 16.6912 4.54703L17.5822 4.09304C17.2147 3.37175 16.6283 2.78532 15.907 2.41781L15.453 3.30881ZM7.83333 2C6.90816 2 6.18421 1.99961 5.60329 2.04707C5.01653 2.09501 4.53179 2.19425 4.09304 2.41781L4.54703 3.30881C4.82131 3.16906 5.1598 3.08664 5.68472 3.04375C6.21548 3.00039 6.89166 3 7.83333 3V2ZM3 7.83333C3 6.89166 3.00039 6.21548 3.04375 5.68472C3.08664 5.1598 3.16906 4.82131 3.30881 4.54703L2.41781 4.09304C2.19425 4.53179 2.09501 5.01653 2.04707 5.60329C1.99961 6.18421 2 6.90816 2 7.83333H3ZM4.09304 2.41781C3.37175 2.78532 2.78532 3.37175 2.41781 4.09304L3.30881 4.54703C3.58046 4.0139 4.0139 3.58046 4.54703 3.30881L4.09304 2.41781ZM17 7.83333V9.16667H18V7.83333H17ZM7.83333 18H9.16667V17H7.83333V18ZM6.66667 7.16667H13.3333V6.16667H6.66667V7.16667ZM6.66667 10.5H13.3333V9.5H6.66667V10.5ZM6.66667 13.8333H10V12.8333H6.66667V13.8333ZM12.352 18.0719L12.7377 16.915L11.789 16.5987L11.4033 17.7557L12.352 18.0719ZM13.0148 16.4665L16.858 12.6233L16.1509 11.9162L12.3077 15.7594L13.0148 16.4665ZM18.21 13.9753L14.3668 17.8185L15.0739 18.5256L18.9171 14.6824L18.21 13.9753ZM13.9184 18.0956L12.7614 18.4813L13.0776 19.43L14.2346 19.0443L13.9184 18.0956ZM14.3668 17.8185C14.2548 17.9305 14.2313 17.9525 14.2082 17.9699L14.8104 18.7682C14.9018 18.6993 14.9808 18.6187 15.0739 18.5256L14.3668 17.8185ZM14.2346 19.0443C14.3595 19.0027 14.4669 18.9681 14.5695 18.9171L14.1248 18.0215C14.0988 18.0343 14.0686 18.0456 13.9184 18.0956L14.2346 19.0443ZM14.2082 17.9699C14.182 17.9896 14.1541 18.0069 14.1248 18.0215L14.5695 18.9171C14.6542 18.8751 14.7349 18.8252 14.8104 18.7682L14.2082 17.9699ZM18.21 12.6233C18.5192 12.9325 18.5822 13.0048 18.6116 13.0642L19.5076 12.6202C19.387 12.3767 19.1693 12.1683 18.9171 11.9162L18.21 12.6233ZM18.9171 14.6824C19.1693 14.4303 19.387 14.2219 19.5076 13.9784L18.6116 13.5344C18.5822 13.5938 18.5192 13.6661 18.21 13.9753L18.9171 14.6824ZM18.6116 13.0642C18.685 13.2123 18.685 13.3863 18.6116 13.5344L19.5076 13.9784C19.7197 13.5505 19.7197 13.0481 19.5076 12.6202L18.6116 13.0642ZM16.858 12.6233C17.1673 12.3141 17.2396 12.2511 17.2989 12.2217L16.8549 11.3257C16.6114 11.4463 16.4031 11.6641 16.1509 11.9162L16.858 12.6233ZM18.9171 11.9162C18.665 11.6641 18.4566 11.4463 18.2132 11.3257L17.7692 12.2217C17.8285 12.2511 17.9008 12.3141 18.21 12.6233L18.9171 11.9162ZM17.2989 12.2217C17.4471 12.1483 17.621 12.1483 17.7692 12.2217L18.2132 11.3257C17.7852 11.1137 17.2828 11.1137 16.8549 11.3257L17.2989 12.2217ZM12.7377 16.915C12.7878 16.7647 12.799 16.7345 12.8119 16.7086L11.9162 16.2639C11.8653 16.3664 11.8306 16.4738 11.789 16.5987L12.7377 16.915ZM12.3077 15.7594C12.2146 15.8525 12.1341 15.9315 12.0651 16.0229L12.8634 16.6252C12.8808 16.6021 12.9029 16.5785 13.0148 16.4665L12.3077 15.7594ZM12.8119 16.7086C12.8264 16.6792 12.8437 16.6513 12.8634 16.6252L12.0651 16.0229C12.0081 16.0985 11.9583 16.1791 11.9162 16.2639L12.8119 16.7086ZM11.4033 17.7557C11.3227 17.9977 11.2507 18.212 11.2098 18.3862C11.1706 18.5529 11.1343 18.7776 11.2149 19.0035L12.1568 18.6676C12.1777 18.7262 12.1535 18.7415 12.1833 18.615C12.2113 18.4958 12.265 18.3329 12.352 18.0719L11.4033 17.7557ZM12.7614 18.4813C12.5005 18.5683 12.3375 18.6221 12.2184 18.6501C12.0918 18.6798 12.1071 18.6556 12.1657 18.6765L11.8299 19.6185C12.0557 19.699 12.2804 19.6627 12.4471 19.6236C12.6213 19.5826 12.8356 19.5107 13.0776 19.43L12.7614 18.4813ZM11.2149 19.0035C11.3172 19.2904 11.543 19.5161 11.8299 19.6185L12.1657 18.6765C12.1616 18.6751 12.1583 18.6718 12.1568 18.6676L11.2149 19.0035Z" fill="#959595"/>
</svg>
