<svg width="24" height="24" viewBox="0 0 24 24" fill="none" xmlns="http://www.w3.org/2000/svg">
<path d="M18.9896 6.36334L19.3633 6.03116V6.03116L18.9896 6.36334ZM17.1934 4.34254L16.8197 4.67473V4.67473L17.1934 4.34254ZM15.9212 3.17552L15.7164 3.63164V3.63164L15.9212 3.17552ZM19.8694 7.54964L19.4021 7.72733L19.4021 7.72733L19.8694 7.54964ZM19.1213 20.1213L19.4749 20.4749H19.4749L19.1213 20.1213ZM14.5384 6.89018L15.0288 6.79264L14.5384 6.89018ZM16.1098 8.46157L16.0123 8.95196H16.0123L16.1098 8.46157ZM7 12.5C6.72386 12.5 6.5 12.7239 6.5 13C6.5 13.2761 6.72386 13.5 7 13.5V12.5ZM15 13.5C15.2761 13.5 15.5 13.2761 15.5 13C15.5 12.7239 15.2761 12.5 15 12.5V13.5ZM7 15.5C6.72386 15.5 6.5 15.7239 6.5 16C6.5 16.2761 6.72386 16.5 7 16.5V15.5ZM12 16.5C12.2761 16.5 12.5 16.2761 12.5 16C12.5 15.7239 12.2761 15.5 12 15.5V16.5ZM14 20.5H10V21.5H14V20.5ZM4.5 15V9H3.5V15H4.5ZM19.5 9.0208V15H20.5V9.0208H19.5ZM10 3.5H14.2037V2.5H10V3.5ZM14.2037 3.5C15.1327 3.5 15.446 3.51024 15.7164 3.63164L16.126 2.7194C15.6146 2.48976 15.0436 2.5 14.2037 2.5V3.5ZM17.5671 4.01036C17.0091 3.38267 16.6374 2.94904 16.126 2.7194L15.7164 3.63164C15.9867 3.75304 16.2025 3.98041 16.8197 4.67473L17.5671 4.01036ZM20.5 9.0208C20.5 8.30613 20.5076 7.82107 20.3368 7.37195L19.4021 7.72733C19.4924 7.96498 19.5 8.23177 19.5 9.0208H20.5ZM18.6159 6.69552C19.1401 7.28525 19.3117 7.48967 19.4021 7.72733L20.3368 7.37195C20.166 6.92282 19.8381 6.56531 19.3633 6.03116L18.6159 6.69552ZM10 20.5C8.57165 20.5 7.55069 20.4989 6.77481 20.3946C6.01331 20.2922 5.56319 20.0987 5.23223 19.7678L4.52513 20.4749C5.07285 21.0226 5.76917 21.2684 6.64156 21.3857C7.49956 21.5011 8.59992 21.5 10 21.5V20.5ZM3.5 15C3.5 16.4001 3.49894 17.5004 3.61429 18.3584C3.73158 19.2308 3.9774 19.9272 4.52513 20.4749L5.23223 19.7678C4.90128 19.4368 4.70776 18.9867 4.60538 18.2252C4.50106 17.4493 4.5 16.4283 4.5 15H3.5ZM14 21.5C15.4001 21.5 16.5004 21.5011 17.3584 21.3857C18.2308 21.2684 18.9271 21.0226 19.4749 20.4749L18.7678 19.7678C18.4368 20.0987 17.9867 20.2922 17.2252 20.3946C16.4493 20.4989 15.4283 20.5 14 20.5V21.5ZM19.5 15C19.5 16.4283 19.4989 17.4493 19.3946 18.2252C19.2922 18.9867 19.0987 19.4368 18.7678 19.7678L19.4749 20.4749C20.0226 19.9272 20.2684 19.2308 20.3857 18.3584C20.5011 17.5004 20.5 16.4001 20.5 15H19.5ZM4.5 9C4.5 7.57165 4.50106 6.55069 4.60538 5.77481C4.70776 5.01331 4.90128 4.56319 5.23223 4.23223L4.52513 3.52513C3.9774 4.07285 3.73158 4.76917 3.61429 5.64156C3.49894 6.49956 3.5 7.59992 3.5 9H4.5ZM10 2.5C8.59992 2.5 7.49956 2.49894 6.64156 2.61429C5.76917 2.73158 5.07285 2.9774 4.52513 3.52513L5.23223 4.23223C5.56319 3.90128 6.01331 3.70776 6.77481 3.60538C7.55069 3.50106 8.57165 3.5 10 3.5V2.5ZM14 3V6H15V3H14ZM17 9H20V8H17V9ZM14 6C14 6.44069 13.9976 6.73405 14.048 6.98773L15.0288 6.79264C15.0024 6.65991 15 6.48862 15 6H14ZM17 8C16.5114 8 16.3401 7.99758 16.2074 7.97118L16.0123 8.95196C16.2659 9.00242 16.5593 9 17 9V8ZM14.048 6.98773C14.2453 7.97945 15.0205 8.7547 16.0123 8.95196L16.2074 7.97118C15.6123 7.85282 15.1472 7.38767 15.0288 6.79264L14.048 6.98773ZM7 13.5H15V12.5H7V13.5ZM7 16.5H12V15.5H7V16.5ZM19.3633 6.03116L17.5671 4.01036L16.8197 4.67473L18.6159 6.69552L19.3633 6.03116Z" fill="#1C6FF4"/>
</svg>
