<svg width="24" height="24" viewBox="0 0 24 24" fill="none" xmlns="http://www.w3.org/2000/svg">
<path d="M3 17.5C3 16.0955 3 15.3933 3.33706 14.8889C3.48298 14.6705 3.67048 14.483 3.88886 14.3371C4.39331 14 5.09554 14 6.5 14H17.5C18.9045 14 19.6067 14 20.1111 14.3371C20.3295 14.483 20.517 14.6705 20.6629 14.8889C21 15.3933 21 16.0955 21 17.5C21 18.9045 21 19.6067 20.6629 20.1111C20.517 20.3295 20.3295 20.517 20.1111 20.6629C19.6067 21 18.9045 21 17.5 21H6.5C5.09554 21 4.39331 21 3.88886 20.6629C3.67048 20.517 3.48298 20.3295 3.33706 20.1111C3 19.6067 3 18.9045 3 17.5Z" stroke="#1C6FF4"/>
<path d="M3 6.5C3 5.09554 3 4.39331 3.33706 3.88886C3.48298 3.67048 3.67048 3.48298 3.88886 3.33706C4.39331 3 5.09554 3 6.5 3H12.5C13.9045 3 14.6067 3 15.1111 3.33706C15.3295 3.48298 15.517 3.67048 15.6629 3.88886C16 4.39331 16 5.09554 16 6.5C16 7.90446 16 8.60669 15.6629 9.11114C15.517 9.32952 15.3295 9.51702 15.1111 9.66294C14.6067 10 13.9045 10 12.5 10H6.5C5.09554 10 4.39331 10 3.88886 9.66294C3.67048 9.51702 3.48298 9.32952 3.33706 9.11114C3 8.60669 3 7.90446 3 6.5Z" stroke="#1C6FF4"/>
</svg>
