<svg width="20" height="20" viewBox="0 0 20 20" fill="none" xmlns="http://www.w3.org/2000/svg">
<path d="M19 10C19 14.9706 14.9706 19 10 19C5.02944 19 1 14.9706 1 10C1 5.02944 5.02944 1 10 1C14.9706 1 19 5.02944 19 10Z" stroke="#1C6FF4" stroke-linecap="round"/>
<path d="M9.75202 15L7.10602 10.38V9.764H7.41402C7.90868 9.764 8.32402 9.71733 8.66002 9.624C9.00535 9.53066 9.27602 9.37667 9.47202 9.162C9.66802 8.94733 9.78469 8.65333 9.82202 8.28H7.10602V7.384H9.80802C9.74268 7.03867 9.61202 6.75866 9.41602 6.544C9.22002 6.32 8.95402 6.15666 8.61802 6.054C8.29135 5.95133 7.89002 5.9 7.41402 5.9H7.10602V5.004H12.902V5.9H10.256C10.4707 6.07733 10.648 6.28733 10.788 6.53C10.928 6.77266 11.0167 7.05733 11.054 7.384H12.902V8.28H11.082C11.0167 8.96133 10.7554 9.49333 10.298 9.876C9.85002 10.2493 9.25268 10.4873 8.50602 10.59L11.18 15H9.75202Z" fill="#1C6FF4"/>
</svg>
