<svg width="24" height="24" viewBox="0 0 24 24" fill="none" xmlns="http://www.w3.org/2000/svg">
<path d="M19 12V7C19 5.11438 19 4.17157 18.4142 3.58579C17.8284 3 16.8856 3 15 3H9C7.11438 3 6.17157 3 5.58579 3.58579C5 4.17157 5 5.11438 5 7V12M9 7H15M9 10H15M16 16.2857C16 16.0201 16 15.8873 16.0251 15.7775C16.1105 15.403 16.403 15.1105 16.7775 15.0251C16.8873 15 17.0201 15 17.2857 15H19C19.9428 15 20.4142 15 20.7071 15.2929C21 15.5858 21 16.0572 21 17V19C21 19.9428 21 20.4142 20.7071 20.7071C20.4142 21 19.9428 21 19 21H5C4.05719 21 3.58579 21 3.29289 20.7071C3 20.4142 3 19.9428 3 19V17C3 16.0572 3 15.5858 3.29289 15.2929C3.58579 15 4.05719 15 5 15H6.71429C6.97988 15 7.11267 15 7.22252 15.0251C7.59702 15.1105 7.88945 15.403 7.97493 15.7775C8 15.8873 8 16.0201 8 16.2857C8 16.5513 8 16.6841 8.02507 16.7939C8.11055 17.1684 8.40298 17.4609 8.77748 17.5464C8.88733 17.5714 9.02012 17.5714 9.28571 17.5714H14.7143C14.9799 17.5714 15.1127 17.5714 15.2225 17.5464C15.597 17.4609 15.8895 17.1684 15.9749 16.7939C16 16.6841 16 16.5513 16 16.2857Z" stroke="#1B6CEE" stroke-linecap="round"/>
</svg>
