<svg width="54" height="30" viewBox="0 0 54 30" fill="none" xmlns="http://www.w3.org/2000/svg">
<path d="M5.7803 25.7322H5.75072L3.38416 19.0469H0V29.2956H2.23638V21.4225H2.26599L4.83369 29.2837H6.54354L9.23549 21.4225H9.26507V29.2837H11.5015V19.0349H8.12913L5.7803 25.7322Z" fill="white"/>
<path d="M16.89 19.035L12.4941 29.2838H14.9671L15.8132 27.1111H19.7594L20.6351 29.2838H23.1613L18.7654 19.035H16.89ZM16.5172 25.201L17.7478 22.0136L18.9962 25.201H16.5172Z" fill="white"/>
<path d="M21.9498 21.0406H24.8488V29.2957H27.0852V21.0406H29.9842V19.035H21.9498V21.0406Z" fill="white"/>
<path d="M38.8822 22.1584C38.8822 19.7708 37.1073 19.0485 35.0544 19.0485H31.1199V29.2973H33.3564V25.2026H34.4627L36.5867 29.2973H39.2728L36.6873 24.9698C37.3364 24.8653 37.9227 24.5179 38.3295 23.997C38.7363 23.476 38.9336 22.8195 38.8822 22.1584ZM34.6757 23.2865H33.3564V20.9586H34.8236C35.6401 20.9586 36.5571 21.1198 36.5571 22.1524C36.5571 23.2626 35.4981 23.2865 34.6757 23.2865Z" fill="white"/>
<path d="M42.6267 19.0485H40.3903V29.2973H42.6267V19.0485Z" fill="white"/>
<path d="M50.32 23.8953L53.6095 19.0485H50.8939L48.8113 22.6299L46.6459 19.0485H43.8356L47.1902 23.9431L43.6404 29.3152H46.2909L48.7048 25.1906L51.1897 29.3152H54L50.32 23.8953Z" fill="white"/>
<path d="M0.0233765 0V16.2476H16.1219V0H0.0233765ZM8.96305 13.4481C5.83327 13.4481 3.54364 11.3709 3.54364 8.1238C3.54364 4.87667 5.83327 2.79946 8.96305 2.79946C9.60285 2.77819 10.2394 2.90048 10.8267 3.1575C11.4139 3.41453 11.9373 3.79987 12.3591 4.28574L10.6552 5.68845C10.4216 5.41405 10.1292 5.19679 9.80024 5.05306C9.47124 4.90932 9.11416 4.84289 8.75599 4.85876C7.08165 4.85876 5.84513 6.22566 5.84513 8.11783C5.84513 10.01 7.08165 11.3829 8.67907 11.3829C9.08838 11.3959 9.49418 11.3029 9.85773 11.1127C10.2213 10.9225 10.5305 10.6415 10.7557 10.2965L12.5957 11.6873C12.1743 12.2529 11.6243 12.7081 10.9922 13.0145C10.36 13.3209 9.66408 13.4696 8.96305 13.4481Z" fill="white"/>
<path d="M26.4052 4.94672H24.9556V7.25075H26.2632C27.0678 7.25075 28.1209 7.2209 28.1209 6.11664C28.1209 5.01237 27.2157 4.94672 26.4052 4.94672Z" fill="white"/>
<path d="M18.726 0V16.2476H34.8245V0H18.726ZM28.133 13.1915L26.0327 9.13853H24.9382V13.1915H22.7254V3.04419H26.6125C28.6714 3.04419 30.405 3.76047 30.405 6.12419C30.4521 6.77278 30.2573 7.41575 29.8589 7.927C29.4605 8.43826 28.8872 8.78093 28.2514 8.88783L30.8073 13.1676L28.133 13.1915Z" fill="white"/>
<path d="M37.4271 0V16.2476H53.5256V0H37.4271ZM49.0173 13.1915H41.9176V3.04419H48.7392V5.10349H44.1303V6.99566H48.4848V9.0669H44.1303V11.1322H48.9995L49.0173 13.1915Z" fill="white"/>
</svg>
